<?xml version="1.0" encoding="utf-8"?>
<!-- Generator: Adobe Illustrator 19.2.1, SVG Export Plug-In . SVG Version: 6.00 Build 0)  -->
<svg version="1.1" id="Capa_1" xmlns="http://www.w3.org/2000/svg" xmlns:xlink="http://www.w3.org/1999/xlink" x="0px" y="0px"
	 viewBox="0 0 512 512" style="enable-background:new 0 0 512 512;" xml:space="preserve">
<style type="text/css">
	.st0{fill:#FFFFFF;}
	.st1{fill:#9F6459;}
	.st2{fill:#FF4F19;}
	.st3{fill:#FF9600;}
	.st4{fill:#FFD200;}
	.st5{fill:#74D24F;}
	.st6{fill:#B9BBC1;}
	.st7{opacity:0.69;fill:#444444;enable-background:new    ;}
</style>
<path class="st0" d="M260,19h-8c-6.6,0-12,5.4-12,12v8c0,6.6,5.4,12,12,12h8c6.6,0,12-5.4,12-12v-8C272,24.4,266.6,19,260,19z"/>
<path class="st0" d="M76,67v405c0,0-9,24,70,23s275,0,275,0s18-1,18-84s-6-351-6-351L76,67z"/>
<g>
	<path class="st1" d="M416,32H272c0,8.8-7.2,16-16,16s-16-7.2-16-16H96c-22.1,0-40,17.9-40,40v400c0,22.1,17.9,40,40,40h320
		c22.1,0,40-17.9,40-40V72C456,49.9,438.1,32,416,32z M416,464c0,4.4-3.6,8-8,8H104c-4.4,0-8-3.6-8-8V80c0-4.4,3.6-8,8-8h304
		c4.4,0,8,3.6,8,8V464z"/>
</g>
<g>
	<circle class="st2" cx="152" cy="320" r="24"/>
</g>
<g>
	<circle class="st3" cx="152" cy="168" r="24"/>
</g>
<g>
	<circle class="st4" cx="152" cy="396" r="24"/>
</g>
<g>
	<circle class="st5" cx="152" cy="244" r="24"/>
</g>
<g>
	<path class="st6" d="M304,16h-20.4C278,6.2,267.5,0,256,0s-22,6.2-27.6,16H208c-22.1,0-40,17.9-40,40v32c0,4.4,3.6,8,8,8h160
		c4.4,0,8-3.6,8-8V56C344,33.9,326.1,16,304,16z M256,40c-4.4,0-8-3.6-8-8s3.6-8,8-8s8,3.6,8,8S260.4,40,256,40z"/>
</g>
<path class="st7" d="M372.5,175.5h-155c-5.2,0-9.5-4.3-9.5-9.5l0,0c0-5.2,4.3-9.5,9.5-9.5h155c5.2,0,9.5,4.3,9.5,9.5l0,0
	C382,171.2,377.7,175.5,372.5,175.5z"/>
<path class="st7" d="M372.5,251.5h-155c-5.2,0-9.5-4.3-9.5-9.5l0,0c0-5.2,4.3-9.5,9.5-9.5h155c5.2,0,9.5,4.3,9.5,9.5l0,0
	C382,247.2,377.7,251.5,372.5,251.5z"/>
<path class="st7" d="M372.5,327.5h-155c-5.2,0-9.5-4.3-9.5-9.5l0,0c0-5.2,4.3-9.5,9.5-9.5h155c5.2,0,9.5,4.3,9.5,9.5l0,0
	C382,323.2,377.7,327.5,372.5,327.5z"/>
<path class="st7" d="M372.5,403.5h-155c-5.2,0-9.5-4.3-9.5-9.5l0,0c0-5.2,4.3-9.5,9.5-9.5h155c5.2,0,9.5,4.3,9.5,9.5l0,0
	C382,399.2,377.7,403.5,372.5,403.5z"/>
</svg>
