<?xml version="1.0" encoding="iso-8859-1"?>
<!-- Generator: Adobe Illustrator 19.0.0, SVG Export Plug-In . SVG Version: 6.00 Build 0)  -->
<svg version="1.1" id="Layer_1" xmlns="http://www.w3.org/2000/svg" xmlns:xlink="http://www.w3.org/1999/xlink" x="0px" y="0px"
	 viewBox="0 0 496 496" style="enable-background:new 0 0 496 496;" xml:space="preserve">
<path style="fill:#D6D6D6;" d="M496,455.6c0,17.6-14.4,32-32,32H32c-17.6,0-32-14.4-32-32v-192c0-17.6,14.4-32,32-32h432
	c17.6,0,32,14.4,32,32V455.6z"/>
<path style="fill:#BCBCBC;" d="M0,263.6c0-17.6,14.4-32,32-32h432c17.6,0,32,13.6,32,31.2v192c0,17.6-14.4,32-32,32"/>
<g>
	<path style="fill:#FFFFFF;" d="M88,308.4c0,6.4-4.8,11.2-11.2,11.2H43.2c-6.4,0-11.2-4.8-11.2-11.2v-32.8c0-7.2,4.8-12,11.2-12H76
		c6.4,0,11.2,4.8,11.2,11.2v33.6H88z"/>
	<path style="fill:#FFFFFF;" d="M168,308.4c0,6.4-4.8,11.2-11.2,11.2H124c-6.4,0-11.2-4.8-11.2-11.2v-32.8c0-6.4,4.8-11.2,11.2-11.2
		h32.8c6.4,0,11.2,4.8,11.2,11.2V308.4z"/>
	<path style="fill:#FFFFFF;" d="M240,308.4c0,6.4-4.8,11.2-11.2,11.2H196c-6.4,0-11.2-4.8-11.2-11.2v-32.8c0-6.4,4.8-11.2,11.2-11.2
		h32.8c6.4,0,11.2,4.8,11.2,11.2V308.4z"/>
	<path style="fill:#FFFFFF;" d="M312,308.4c0,6.4-4.8,11.2-11.2,11.2H268c-6.4,0-11.2-4.8-11.2-11.2v-32.8c0-6.4,4.8-11.2,11.2-11.2
		h32.8c6.4,0,11.2,4.8,11.2,11.2V308.4z"/>
	<path style="fill:#FFFFFF;" d="M392,308.4c0,6.4-4.8,11.2-11.2,11.2H348c-6.4,0-11.2-4.8-11.2-11.2v-32.8c0-6.4,4.8-11.2,11.2-11.2
		h32.8c6.4,0,11.2,4.8,11.2,11.2V308.4z"/>
	<path style="fill:#FFFFFF;" d="M464,308.4c0,6.4-4.8,11.2-11.2,11.2H420c-6.4,0-11.2-4.8-11.2-11.2v-32.8c0-6.4,4.8-11.2,11.2-11.2
		h32.8c6.4,0,11.2,4.8,11.2,11.2V308.4z"/>
	<path style="fill:#FFFFFF;" d="M88,380.4c0,6.4-4.8,11.2-11.2,11.2H43.2c-6.4,0-11.2-4.8-11.2-11.2v-32.8c0-7.2,4.8-12,11.2-12H76
		c6.4,0,11.2,4.8,11.2,11.2v33.6H88z"/>
	<path style="fill:#FFFFFF;" d="M168,380.4c0,6.4-4.8,11.2-11.2,11.2H124c-6.4,0-11.2-4.8-11.2-11.2v-32.8c0-6.4,4.8-11.2,11.2-11.2
		h32.8c6.4,0,11.2,4.8,11.2,11.2V380.4z"/>
	<path style="fill:#FFFFFF;" d="M240,380.4c0,6.4-4.8,11.2-11.2,11.2H196c-6.4,0-11.2-4.8-11.2-11.2v-32.8c0-6.4,4.8-11.2,11.2-11.2
		h32.8c6.4,0,11.2,4.8,11.2,11.2V380.4z"/>
	<path style="fill:#FFFFFF;" d="M312,380.4c0,6.4-4.8,11.2-11.2,11.2H268c-6.4,0-11.2-4.8-11.2-11.2v-32.8c0-6.4,4.8-11.2,11.2-11.2
		h32.8c6.4,0,11.2,4.8,11.2,11.2V380.4z"/>
	<path style="fill:#FFFFFF;" d="M464,380.4c0,6.4-4.8,11.2-11.2,11.2H347.2c-6.4,0-11.2-4.8-11.2-11.2v-32.8
		c0-6.4,4.8-11.2,11.2-11.2H452c6.4,0,11.2,4.8,11.2,11.2v32.8H464z"/>
	<path style="fill:#FFFFFF;" d="M88,444.4c0,6.4-4.8,11.2-11.2,11.2H43.2c-6.4,0-11.2-4.8-11.2-11.2v-32.8c0-7.2,4.8-12,11.2-12H76
		c6.4,0,11.2,4.8,11.2,11.2v33.6H88z"/>
	<path style="fill:#FFFFFF;" d="M392,444.4c0,6.4-4.8,11.2-11.2,11.2H123.2c-6.4,0-11.2-4.8-11.2-11.2v-32.8
		c0-6.4,4.8-11.2,11.2-11.2H380c6.4,0,11.2,4.8,11.2,11.2v32.8H392z"/>
	<path style="fill:#FFFFFF;" d="M464,444.4c0,6.4-4.8,11.2-11.2,11.2H420c-6.4,0-11.2-4.8-11.2-11.2v-32.8c0-6.4,4.8-11.2,11.2-11.2
		h32.8c6.4,0,11.2,4.8,11.2,11.2V444.4z"/>
</g>
<path style="fill:#BCBCBC;" d="M279.2,223.6c0,5.6-4,8-9.6,8H220c-5.6,0-9.6-2.4-9.6-8l0,0c0-5.6,4-8,9.6-8h49.6
	C274.4,215.6,279.2,218,279.2,223.6L279.2,223.6z"/>
<path style="fill:#4C5254;" d="M256,215.6h-24v-55.2c0-13.6-9.6-25.6-23.2-25.6c-13.6,0-23.2,8.8-23.2,24.8h-24
	c0-24,20.8-48,47.2-48c27.2,0,47.2,22.4,47.2,48.8V215.6z"/>
<path style="fill:#2F423F;" d="M136.8,208.4c-27.2,0-48.8-21.6-48.8-48.8V20.4c0-6.4,5.6-12,12-12s12,4.8,12,12v139.2
	c0,13.6,11.2,24.8,24.8,24.8s24.8-11.2,24.8-24.8c0-6.4,4.8-12,12-12s12,5.6,12,12C184.8,186.8,163.2,208.4,136.8,208.4z"/>
<g>
</g>
<g>
</g>
<g>
</g>
<g>
</g>
<g>
</g>
<g>
</g>
<g>
</g>
<g>
</g>
<g>
</g>
<g>
</g>
<g>
</g>
<g>
</g>
<g>
</g>
<g>
</g>
<g>
</g>
</svg>
