<?xml version="1.0" encoding="iso-8859-1"?>
<!-- Generator: Adobe Illustrator 19.0.0, SVG Export Plug-In . SVG Version: 6.00 Build 0)  -->
<svg version="1.1" id="Layer_1" xmlns="http://www.w3.org/2000/svg" xmlns:xlink="http://www.w3.org/1999/xlink" x="0px" y="0px"
	 viewBox="0 0 512 512" style="enable-background:new 0 0 512 512;" xml:space="preserve">
<path style="fill:#A5A5A5;" d="M512,444.684v0.533c0,24.588-19.933,44.522-44.522,44.522H44.522C19.933,489.739,0,469.806,0,445.217
	v-0.533c0-24.588,19.933-44.522,44.522-44.522h422.957C492.066,400.162,512,420.096,512,444.684z"/>
<path style="fill:#777777;" d="M169.739,456.147c0,4.638-3.738,8.398-8.348,8.398H72.348c-4.61,0-8.348-3.76-8.348-8.398
	c0-4.638,3.738-8.398,8.348-8.398h89.043C166.002,447.75,169.739,451.509,169.739,456.147z M439.652,447.75H272.696
	c-4.61,0-8.348,3.76-8.348,8.398c0,4.638,3.738,8.398,8.348,8.398h166.957c4.61,0,8.348-3.76,8.348-8.398
	C448,451.509,444.262,447.75,439.652,447.75z M234.852,447.75h-1.113c-4.61,0-8.348,3.76-8.348,8.398
	c0,4.638,3.738,8.398,8.348,8.398h1.113c4.61,0,8.348-3.76,8.348-8.398C243.2,451.509,239.462,447.75,234.852,447.75z
	 M200.348,447.75h-1.113c-4.61,0-8.348,3.76-8.348,8.398c0,4.638,3.738,8.398,8.348,8.398h1.113c4.61,0,8.348-3.76,8.348-8.398
	C208.696,451.509,204.958,447.75,200.348,447.75z"/>
<path style="fill:#CCCAC4;" d="M434.087,86.644h-33.309v-5.599c0-32.414-26.213-58.784-58.435-58.784s-58.435,26.37-58.435,58.784
	v5.599H77.913c-24.588,0-44.522,20.053-44.522,44.789v246.335c0,24.736,19.933,44.789,44.522,44.789h356.174
	c24.588,0,44.522-20.053,44.522-44.789V131.433C478.609,106.696,458.675,86.644,434.087,86.644z M300.604,81.045
	c0-23.154,18.724-41.99,41.739-41.99c23.016,0,41.739,18.836,41.739,41.99v5.599h-83.478V81.045z"/>
<path style="fill:#F2EFE2;" d="M434.087,400.162H77.913c-12.295,0-22.261-9.966-22.261-22.261V131.299
	c0-12.295,9.966-22.261,22.261-22.261h356.174c12.295,0,22.261,9.966,22.261,22.261v246.603
	C456.348,390.196,446.382,400.162,434.087,400.162z"/>
<path style="fill:#CFDFE2;" d="M378.435,321.783h-244.87c-36.883,0-66.783-29.9-66.783-66.783v-0.8
	c0-36.883,29.9-66.783,66.783-66.783h244.87c36.883,0,66.783,29.9,66.783,66.783v0.8
	C445.217,291.883,415.318,321.783,378.435,321.783z"/>
<path style="fill:#256277;" d="M134.124,245.643c4.61,0,8.348,3.76,8.348,8.398v1.12c0,4.638-3.738,8.398-8.348,8.398
	c-4.61,0-8.348-3.76-8.348-8.398v-1.12C125.776,249.403,129.514,245.643,134.124,245.643z M167.515,245.643
	c-4.61,0-8.348,3.76-8.348,8.398v1.12c0,4.638,3.738,8.398,8.348,8.398s8.348-3.76,8.348-8.398v-1.12
	C175.863,249.403,172.127,245.643,167.515,245.643z M255.441,245.643c-4.61,0-8.348,3.76-8.348,8.398v1.12
	c0,4.638,3.738,8.398,8.348,8.398s8.348-3.76,8.348-8.398v-1.12C263.789,249.403,260.051,245.643,255.441,245.643z M297.18,255.161
	v-1.12c0-4.638-3.738-8.398-8.348-8.398s-8.348,3.76-8.348,8.398v1.12c0,4.638,3.738,8.398,8.348,8.398
	S297.18,259.798,297.18,255.161z M155.045,178.927c-3.26-3.279-8.546-3.279-11.805,0l-53.579,53.899
	c-11.934,12.005-11.934,31.54,0,43.546l53.579,53.899c1.63,1.639,3.767,2.46,5.902,2.46c2.136,0,4.273-0.82,5.902-2.46
	c3.26-3.279,3.26-8.597,0-11.876l-53.579-53.899c-5.425-5.457-5.425-14.336,0-19.794l53.579-53.899
	C158.306,187.524,158.306,182.207,155.045,178.927z M333.295,232.828l-53.579-53.899c-3.26-3.279-8.546-3.279-11.805,0
	c-3.26,3.279-3.26,8.597,0,11.876l53.579,53.899c5.425,5.457,5.425,14.336,0,19.794l-53.579,53.899c-3.26,3.279-3.26,8.597,0,11.876
	c1.63,1.64,3.767,2.46,5.902,2.46s4.273-0.82,5.902-2.46l53.579-53.899C345.23,264.368,345.23,244.833,333.295,232.828z
	 M235.764,156.877c-4.467-1.123-9.005,1.611-10.123,6.111l-44.522,179.153c-1.119,4.499,1.601,9.059,6.074,10.183
	c0.679,0.171,1.36,0.253,2.031,0.253c3.74,0,7.144-2.548,8.092-6.363l44.522-179.153
	C242.956,162.561,240.236,158.001,235.764,156.877z"/>
<path style="fill:#FC8059;" d="M432.8,320.144l-34.16,43.547c-3.43,4.373-8.991,4.373-12.422,0l-34.16-43.547
	c-1.715-2.186-1.715-5.731,0-7.918c0.824-1.05,1.941-1.64,3.105-1.64h28.918V81.045c0-23.154-18.724-41.99-41.739-41.99
	s-41.739,18.836-41.739,41.99v5.599h-16.696v-5.599c0-32.414,26.213-58.784,58.435-58.784s58.435,26.37,58.435,58.784v229.541
	h28.917c1.165,0,2.282,0.59,3.105,1.64C434.515,314.411,434.515,317.956,432.8,320.144z"/>
<g>
</g>
<g>
</g>
<g>
</g>
<g>
</g>
<g>
</g>
<g>
</g>
<g>
</g>
<g>
</g>
<g>
</g>
<g>
</g>
<g>
</g>
<g>
</g>
<g>
</g>
<g>
</g>
<g>
</g>
</svg>
