<svg id="Full_Name_Logo" data-name="Full Name + Logo" xmlns="http://www.w3.org/2000/svg" xmlns:xlink="http://www.w3.org/1999/xlink" viewBox="0 0 2215.5 782.8"><defs><linearGradient id="linear-gradient" x1="131.89" y1="2211.06" x2="643.61" y2="2211.06" gradientUnits="userSpaceOnUse"><stop offset="0" stop-color="#f1592f"/><stop offset="0.13" stop-color="#f0532e"/><stop offset="0.3" stop-color="#eb4329"/><stop offset="0.42" stop-color="#e73225"/><stop offset="0.45" stop-color="#dd3530"/><stop offset="0.57" stop-color="#b64059"/><stop offset="0.69" stop-color="#984879"/><stop offset="0.8" stop-color="#824e8f"/><stop offset="0.91" stop-color="#75529d"/><stop offset="1" stop-color="#7153a2"/></linearGradient><linearGradient id="linear-gradient-2" x1="131.89" y1="2211.07" x2="643.61" y2="2211.07" xlink:href="#linear-gradient"/><linearGradient id="linear-gradient-3" x1="2519.89" y1="2191.46" x2="1449.52" y2="2191.46" gradientUnits="userSpaceOnUse"><stop offset="0" stop-color="#f1592f"/><stop offset="0.13" stop-color="#f0532e"/><stop offset="0.3" stop-color="#eb4329"/><stop offset="0.42" stop-color="#e73225"/><stop offset="0.43" stop-color="#e0342c"/><stop offset="0.46" stop-color="#c33c4b"/><stop offset="0.5" stop-color="#a94367"/><stop offset="0.55" stop-color="#94497d"/><stop offset="0.6" stop-color="#844e8e"/><stop offset="0.66" stop-color="#795199"/><stop offset="0.75" stop-color="#7353a0"/><stop offset="1" stop-color="#7153a2"/></linearGradient><linearGradient id="linear-gradient-4" x1="0" y1="2156.28" x2="2215.5" y2="2156.28" xlink:href="#linear-gradient"/><linearGradient id="linear-gradient-5" x1="67.2" y1="1980.05" x2="673.89" y2="1980.05" gradientUnits="userSpaceOnUse"><stop offset="0" stop-color="#f1592f"/><stop offset="0.19" stop-color="#f0532e"/><stop offset="0.43" stop-color="#eb4329"/><stop offset="0.61" stop-color="#e73225"/><stop offset="0.63" stop-color="#dd3530"/><stop offset="0.71" stop-color="#b64059"/><stop offset="0.79" stop-color="#984879"/><stop offset="0.86" stop-color="#824e8f"/><stop offset="0.94" stop-color="#75529d"/><stop offset="1" stop-color="#7153a2"/></linearGradient><linearGradient id="linear-gradient-6" x1="228.61" y1="2217.34" x2="1584.62" y2="2217.34" xlink:href="#linear-gradient"/><linearGradient id="linear-gradient-7" x1="228.61" y1="2276.35" x2="1584.62" y2="2276.35" xlink:href="#linear-gradient"/><linearGradient id="linear-gradient-8" x1="228.61" y1="2217.46" x2="1584.62" y2="2217.46" xlink:href="#linear-gradient"/><linearGradient id="linear-gradient-10" x1="-18.78" y1="2574.66" x2="2219.17" y2="2574.66" gradientUnits="userSpaceOnUse"><stop offset="0" stop-color="#f1592f"/><stop offset="0.1" stop-color="#f0532e"/><stop offset="0.24" stop-color="#eb4329"/><stop offset="0.34" stop-color="#e73225"/><stop offset="0.37" stop-color="#dd3530"/><stop offset="0.51" stop-color="#b64059"/><stop offset="0.64" stop-color="#984879"/><stop offset="0.77" stop-color="#824e8f"/><stop offset="0.89" stop-color="#75529d"/><stop offset="1" stop-color="#7153a2"/></linearGradient><linearGradient id="linear-gradient-26" x1="-18.78" y1="2575.32" x2="2219.17" y2="2575.32" xlink:href="#linear-gradient-10"/></defs><title>logo-colour</title><path d="M102.31,2400.87H87.07L184,2021.25h14.82Z" transform="translate(0 -1831.36)" fill="url(#linear-gradient)"/><path d="M154.76,2400.9H139.53l96.89-379.65h14.82Z" transform="translate(0 -1831.36)" fill="url(#linear-gradient-2)"/><path d="M1442.29,2223.54a25,25,0,0,0,49.66,4.12h309.27l85.05-85.05h78.19v51H1924.2a25,25,0,1,0,.25,8.25h48.26v-67.53h-89.85l-85.05,85.05H1491.95A25,25,0,0,0,1442.29,2223.54Z" transform="translate(0 -1831.36)" fill="url(#linear-gradient-3)"/><path d="M2169.11,1831.36H0V2481.2H2215.5V1831.36h-46.39ZM698.24,1877.76l-53.33,53.33H520.15l-53.33-53.33H698.24Zm-651.85,0h81.44L80.58,1925H46.39v-47.25Zm0,55.5H84l55.5-55.5H306.44l-27.93,27.92H172.59L119.24,1959H46.39v-25.77Zm2122.72,501.55h-94.66v-39.18l41.73-41.73h52.93v80.9Zm0-89.15h-56.35l-46.56,46.56v42.59H1672.44l32.16-32.16h260a25,25,0,1,0,0-8.25H1701.18l-40.41,40.41h-98.22l61.46-67.5h141.6l100.64-47.88h302.85v26.23Zm0-177.59h-62.57a25,25,0,1,0,0,15.46h62.57v35.89H2025.29v-87.24h143.82v35.89Zm0-202.26H1788.31a25,25,0,1,0,0,8.25h380.79v61.86H1685.76l-93.64-93.64-1.21-1.21H1532.2a25,25,0,1,0-.09,8.25h55.38l93.64,93.64,1.21,1.21h486.77v51.55H1545.55l-40.2-40.2a25,25,0,1,0-6.11,5.55l42.89,42.89h294.94l-54.58,48.2H1517a25,25,0,1,0,0,8.25h268.66l63.92-56.45h319.58v20H2017v103.73h152.06v26.8H1852.18L1745,2306H1579.14l-68,74.23h-39.51a25,25,0,1,0,0,8.25h43.14l68-74.23h164.08l107.22-51.55h315v48.45H1864.39l-100.64,47.88H1620.37l-69,75.75H46.39V1967.28h76.26L176,1913.93H281.93l36.17-36.17H455.15l61.58,61.58h131.6l61.58-61.58h409.79l53.6,43.92h-378a25.28,25.28,0,1,0,0,8.25H961.48l-64.55,64.55H668.13a25.28,25.28,0,1,0,0,8.25H900.35l72.8-72.8H1349.6l49.77,17a25.26,25.26,0,1,0,2.66-7.81L1351,1921.68H1186.3l-53.6-43.92h595.08l-42.32,42.32a25.29,25.29,0,1,0,5.66,5.66l48-48h77.6l44.75,44.75h307.67v43.3Zm0-51.55H1864.86l-36.5-36.5h340.75v36.5Z" transform="translate(0 -1831.36)" fill="url(#linear-gradient-4)"/><path d="M404.34,1896.59a25.27,25.27,0,0,0-20.55,40l-11,11H177.33l-70.14,70.14a25.29,25.29,0,1,0,5.83,5.83l67.73-67.73H376.25l13.37-13.37A25.28,25.28,0,1,0,404.34,1896.59Z" transform="translate(0 -1831.36)" fill="url(#linear-gradient-5)"/><path d="M474.35,2401.82V2238.19H334.84v163.63H287.38v-369h47.45v162.51H474.35V2032.87H521.8v369H474.35Z" transform="translate(0 -1831.36)" fill="url(#linear-gradient-6)"/><path d="M750.62,2378.75l-31.42,16.66c-12.81,6.64-13.29,6.64-28,6.64H647.55c-20.4,0-35.12-2.37-51.72-16.13-19-15.66-23.73-32.27-23.73-56V2310c0-21.83,5.22-35.59,22.3-50.77,15.66-13.76,33.22-17.08,53.15-17.08H745.3v-10.44c0-34.17-7.59-39.86-40.34-39.86H617.65v-45.55h93.48c23.73,0,40.81,2.37,58.84,20.4,17.56,17.56,19.93,31.32,20.4,54.1l4.75,185.64h-44.5v-27.67ZM648,2287.69c-12.34,0-30.37,3.32-30.37,19.93V2338c0,15.18,18.51,18.51,29.42,18.51h50.3l50.3-26.1v-10c0-25.15-7.12-32.74-32.27-32.74H648Z" transform="translate(0 -1831.36)" fill="url(#linear-gradient-7)"/><path d="M1056.11,2402.05h-83c-35.59,0-56-14.24-71.18-45.08l-43.66-88.26c-8.07-16.13-12.81-31.32-12.81-49.83,0-20.88,3.8-33.69,13.29-52.67l43.66-87.79c16.13-32.74,36.54-45.55,73.08-45.55h80.67v47.45H976.86c-20.4,0-23.73,1.9-32.74,19.93l-41.28,82.57c-6.17,12.81-10,21.35-10,36.06,0,13.29,4.27,21.35,10,32.74l40.34,82.09c9.49,19.46,14.24,20.88,35.59,20.88h77.35v47.45Z" transform="translate(0 -1831.36)" fill="url(#linear-gradient-8)"/><path d="M1311.38,2097.5c0-16.13-8-17.18-22.76-17.18H1188c-5.22,0-16.13-1.42-16.13,6.64,0,4.27,5.22,10,7.12,12.81L1342.24,2309c9.49,12.34,16.61,23.25,16.61,39.39,0,35.59-27,53.62-59.79,53.62h-104.4c-18,0-33.69-3.32-47.93-15.18-12.81-10.44-22.3-31.79-22.3-48.4h47.45c0,14.24,7.59,16.13,20.88,16.13h103c3.8,0,15.66,1.42,15.66-5.69,0-3.8-6.64-10.91-8.54-13.76l-162.76-209.27c-10-12.81-15.66-22.3-15.66-38.91,0-19,9-35.12,25.15-45.55,13.29-8.54,24.2-8.54,39.39-8.54h100.6c18,0,33.22,3.8,47,15.66,12.34,10.91,22.3,32.36,22.3,49h-47.47Z" transform="translate(0 -1831.36)" fill="url(#linear-gradient-8)"/><path d="M11.62,2576.65v36.18H2v-76.36h9.62v32.19H45.07v-32.19h9.73v76.36H45.07v-36.18H11.62Z" transform="translate(0 -1831.36)" fill="url(#linear-gradient-10)"/><path d="M93.19,2593.3l-6,19.53H77.3l24.95-76.36h12.31l24.84,76.36H129.1l-5.93-19.53h-30Zm15-48.84-12.64,41h25.17Z" transform="translate(0 -1831.36)" fill="url(#linear-gradient-10)"/><path d="M206.19,2542.58l-5.26,6.21c-4.92-3.88-9.51-5.66-15.1-5.66-12.08,0-22,8.1-22,31.52,0,22.31,9.62,31.3,21.93,31.3,7.38,0,12.08-3.11,16.45-6.44l4.92,6.22c-4.25,4.33-11.52,8.44-21.7,8.44-18.46,0-31.89-13.87-31.89-39.51,0-26,14.32-39.51,31.77-39.51C194.78,2535.14,200.15,2537.81,206.19,2542.58Z" transform="translate(0 -1831.36)" fill="url(#linear-gradient-10)"/><path d="M231,2612.84v-76.36h9.62v76.36H231Zm53.25,0h-12L241.21,2572l30-35.52h11.08l-29.87,35Z" transform="translate(0 -1831.36)" fill="url(#linear-gradient-10)"/><path d="M311.14,2593.3l-6,19.53h-9.85l24.95-76.36h12.31l24.84,76.36H347.05l-5.93-19.53h-30Zm15-48.84-12.64,41h25.17Z" transform="translate(0 -1831.36)" fill="url(#linear-gradient-10)"/><path d="M396.18,2544.69v68.15h-9.62v-68.15H364.4v-8.21h54.48l-1.12,8.21H396.18Z" transform="translate(0 -1831.36)" fill="url(#linear-gradient-10)"/><path d="M451.22,2576.65v36.18H441.6v-76.36h9.62v32.19h33.45v-32.19h9.73v76.36h-9.73v-36.18H451.22Z" transform="translate(0 -1831.36)" fill="url(#linear-gradient-10)"/><path d="M586.94,2574.77c0,25.2-13,39.4-32.22,39.4s-32.22-13.76-32.22-39.29c0-25.2,13.2-39.74,32.22-39.74S586.94,2549,586.94,2574.77Zm-54.15.11c0,22.2,9,31.3,21.93,31.3,13.43,0,21.93-9.1,21.93-31.41s-8.39-31.63-21.93-31.63C541.52,2543.13,532.79,2552.46,532.79,2574.88Z" transform="translate(0 -1831.36)" fill="url(#linear-gradient-10)"/><path d="M655.19,2612.84L622.74,2547a289.32,289.32,0,0,1,1.34,29v36.85H615v-76.36h12.64l32.67,65.93c-0.22-2.11-1.23-13.76-1.23-23.2v-42.73h9.06v76.36h-13Z" transform="translate(0 -1831.36)" fill="url(#linear-gradient-10)"/><path d="M746.6,2593.3l-6,19.53h-9.85l24.95-76.36H768l24.84,76.36H782.52l-5.93-19.53h-30Zm15-48.84-12.64,41h25.17Z" transform="translate(0 -1831.36)" fill="url(#linear-gradient-10)"/><path d="M855.47,2612.84L823,2547a289.32,289.32,0,0,1,1.34,29v36.85H815.3v-76.36h12.64l32.67,65.93c-0.22-2.11-1.23-13.76-1.23-23.2v-42.73h9.06v76.36h-13Z" transform="translate(0 -1831.36)" fill="url(#linear-gradient-10)"/><path d="M955.38,2574.21c0,31.3-19.47,38.63-35.91,38.63h-17.9v-76.36h15.89C936.7,2536.48,955.38,2542.58,955.38,2574.21Zm-44.19,31h9.06c12.31,0,24.73-5.33,24.73-31,0-26.31-13-30-25.51-30h-8.28v60.94Z" transform="translate(0 -1831.36)" fill="url(#linear-gradient-10)"/><path d="M1071.07,2542.58l-5.26,6.21c-4.92-3.88-9.51-5.66-15.1-5.66-12.08,0-22,8.1-22,31.52,0,22.31,9.62,31.3,21.93,31.3,7.38,0,12.08-3.11,16.45-6.44l4.92,6.22c-4.25,4.33-11.52,8.44-21.7,8.44-18.46,0-31.89-13.87-31.89-39.51,0-26,14.32-39.51,31.77-39.51C1059.66,2535.14,1065,2537.81,1071.07,2542.58Z" transform="translate(0 -1831.36)" fill="url(#linear-gradient-10)"/><path d="M1153.08,2574.77c0,25.2-13,39.4-32.22,39.4s-32.22-13.76-32.22-39.29c0-25.2,13.2-39.74,32.22-39.74S1153.08,2549,1153.08,2574.77Zm-54.15.11c0,22.2,9,31.3,21.93,31.3,13.43,0,21.93-9.1,21.93-31.41s-8.39-31.63-21.93-31.63C1107.66,2543.13,1098.93,2552.46,1098.93,2574.88Z" transform="translate(0 -1831.36)" fill="url(#linear-gradient-10)"/><path d="M1238.9,2612.84l-2.91-35c-1.12-12.1-2-25.2-2.13-31.63l-17.34,57.83h-9.06l-18.12-57.94c-0.11,8.66-.78,21-1.79,32.3l-2.69,34.41h-9.17l6.49-76.36h13.2l16.89,56.5,16.11-56.5h13.2l6.71,76.36h-9.4Z" transform="translate(0 -1831.36)" fill="url(#linear-gradient-10)"/><path d="M1328,2559.89c0,17.43-12.64,24.53-29.54,24.53h-10.07v28.41h-9.62v-76.36h19.69C1316.78,2536.48,1328,2543.91,1328,2559.89Zm-10.29.11c0-11.77-7.5-16-19.36-16h-10v32.74h9.73C1309.84,2576.77,1317.67,2573.21,1317.67,2560Z" transform="translate(0 -1831.36)" fill="url(#linear-gradient-10)"/><path d="M1378.76,2614.17c-17.45,0-26.4-10.66-26.4-25.64v-52.05H1362v51.28c0,12,5.37,18.2,16.78,18.2s16.78-6.21,16.78-18.2v-51.28h9.85v52.05C1405.39,2603.51,1396,2614.17,1378.76,2614.17Z" transform="translate(0 -1831.36)" fill="url(#linear-gradient-26)"/><path d="M1459.32,2544.69v68.15h-9.62v-68.15h-22.15v-8.21H1482l-1.12,8.21h-21.59Z" transform="translate(0 -1831.36)" fill="url(#linear-gradient-10)"/><path d="M1504.74,2612.84v-76.36h9.73v76.36h-9.73Z" transform="translate(0 -1831.36)" fill="url(#linear-gradient-10)"/><path d="M1587.76,2612.84L1555.32,2547a289.32,289.32,0,0,1,1.34,29v36.85h-9.06v-76.36h12.64l32.67,65.93c-0.22-2.11-1.23-13.76-1.23-23.2v-42.73h9.06v76.36h-13Z" transform="translate(0 -1831.36)" fill="url(#linear-gradient-10)"/><path d="M1684.54,2543.36l-5.71,5.88c-5.37-4.22-10.07-6.1-17-6.1-11.3,0-22.71,8.55-22.71,31.41,0,22.31,7.94,31.63,21.82,31.63a29.7,29.7,0,0,0,15-3.66v-23.86h-14l-1.12-7.88h24.73v36.74a47.66,47.66,0,0,1-25.29,6.66c-19,0-31.44-13.21-31.44-39.62,0-25.86,15.78-39.4,32.78-39.4C1671.79,2535.14,1678.05,2538,1684.54,2543.36Z" transform="translate(0 -1831.36)" fill="url(#linear-gradient-10)"/><path d="M1796.21,2543.91l-5.48,6.11c-5.59-4.88-11-6.88-17.45-6.88-8.17,0-14.32,3.88-14.32,11.32,0,6.77,3.24,10,17.12,14.21,12.64,3.77,22.6,8.66,22.6,23,0,13.32-10.07,22.53-27,22.53-11,0-19.47-3.66-25.84-9.77l5.71-6.22a27.58,27.58,0,0,0,20,8c9.4,0,17-4.77,17-14.21,0-7.88-3.8-11.32-17-15.32-15.1-4.55-22.6-10.21-22.6-21.87,0-11.43,9.85-19.65,23.83-19.65C1783.34,2535.14,1789.94,2538.25,1796.21,2543.91Z" transform="translate(0 -1831.36)" fill="url(#linear-gradient-10)"/><path d="M1884.59,2574.77c0,25.2-13,39.4-32.22,39.4s-32.22-13.76-32.22-39.29c0-25.2,13.2-39.74,32.22-39.74S1884.59,2549,1884.59,2574.77Zm-54.15.11c0,22.2,9,31.3,21.93,31.3,13.43,0,21.93-9.1,21.93-31.41s-8.39-31.63-21.93-31.63C1839.17,2543.13,1830.44,2552.46,1830.44,2574.88Z" transform="translate(0 -1831.36)" fill="url(#linear-gradient-10)"/><path d="M1960.34,2542.58l-5.26,6.21c-4.92-3.88-9.51-5.66-15.1-5.66-12.08,0-22,8.1-22,31.52,0,22.31,9.62,31.3,21.93,31.3,7.38,0,12.08-3.11,16.45-6.44l4.92,6.22c-4.25,4.33-11.52,8.44-21.7,8.44-18.46,0-31.89-13.87-31.89-39.51,0-26,14.32-39.51,31.77-39.51C1948.93,2535.14,1954.3,2537.81,1960.34,2542.58Z" transform="translate(0 -1831.36)" fill="url(#linear-gradient-10)"/><path d="M1985.18,2612.84v-76.36h9.73v76.36h-9.73Z" transform="translate(0 -1831.36)" fill="url(#linear-gradient-10)"/><path d="M2037.66,2544.24V2570h26.29v7.77h-26.29v27.3h32.22v7.77H2028v-76.36h41.06l-1.12,7.77h-30.32Z" transform="translate(0 -1831.36)" fill="url(#linear-gradient-10)"/><path d="M2119.33,2544.69v68.15h-9.62v-68.15h-22.15v-8.21H2142l-1.12,8.21h-21.59Z" transform="translate(0 -1831.36)" fill="url(#linear-gradient-10)"/><path d="M2188.59,2612.84h-9.84v-29.41L2154,2536.48h10.74L2184,2575l19.13-38.51h10.18l-24.73,46.84v29.52Z" transform="translate(0 -1831.36)" fill="url(#linear-gradient-10)"/></svg>