<svg id="Layer_1" data-name="Layer 1" xmlns="http://www.w3.org/2000/svg" viewBox="0 0 100 100"><title>freshers</title><circle cx="50" cy="50" r="50" fill="#ed9723"/><circle cx="50" cy="50" r="43.33" fill="#f3a03c"/><path d="M61.5,27h-6c-6.7,0-11,4.44-11,11.32v5.22h-6a0.94,0.94,0,0,0-.94.94V52a0.94,0.94,0,0,0,.94.94h6V72.06a0.94,0.94,0,0,0,.94.94h7.83a0.94,0.94,0,0,0,.94-0.94V53h7A0.94,0.94,0,0,0,62.15,52V44.48a0.94,0.94,0,0,0-.94-0.94h-7V39.12c0-2.13.51-3.21,3.28-3.21h4A0.94,0.94,0,0,0,62.43,35v-7A0.94,0.94,0,0,0,61.5,27Z" fill="#fff"/></svg>