<svg id="Poster" xmlns="http://www.w3.org/2000/svg" viewBox="0 0 2215.5 781.82"><title>logo-white</title><path d="M103.4,5497.29H88.17l96.89-379.63h14.82Z" transform="translate(-1.09 -4927.78)" fill="#fff"/><path d="M155.85,5497.31H140.62l96.89-379.65h14.82Z" transform="translate(-1.09 -4927.78)" fill="#fff"/><path d="M1443.38,5320a25,25,0,0,0,49.66,4.12h309.27l85.05-85.05h78.19v51h-40.27a25,25,0,1,0,.25,8.25h48.26v-67.53H1884l-85.05,85.05H1493A25,25,0,0,0,1443.38,5320Z" transform="translate(-1.09 -4927.78)" fill="#fff"/><path d="M2170.2,4927.78H1.09v649.83h2215.5V4927.78H2170.2ZM699.33,4974.17L646,5027.5H521.24l-53.33-53.33H699.33Zm-651.85,0h81.44l-47.25,47.25H47.49v-47.25Zm0,55.5h37.6l55.5-55.5H307.53L279.6,5002.1H173.68l-53.35,53.35H47.49v-25.77ZM2170.2,5531.22h-94.66V5492l41.73-41.73h52.93v80.9Zm0-89.15h-56.35l-46.56,46.56v42.59H1673.53l32.16-32.16h260a25,25,0,1,0,0-8.25H1702.27l-40.41,40.41h-98.22l61.46-67.5h141.6l100.64-47.88H2170.2v26.23Zm0-177.59h-62.57a25,25,0,1,0,0,15.46h62.57v35.89H2026.38v-87.24H2170.2v35.89Zm0-202.26H1789.41a25,25,0,1,0,0,8.25H2170.2v61.86H1686.85l-93.64-93.64-1.21-1.21h-58.71a25,25,0,1,0-.09,8.25h55.38l93.64,93.64,1.21,1.21H2170.2v51.55H1546.64l-40.2-40.2a25,25,0,1,0-6.11,5.55l42.89,42.89h294.94l-54.58,48.2H1518a25,25,0,1,0,0,8.25H1786.7l63.92-56.45H2170.2v20H2018.14v103.73H2170.2v26.8H1853.28l-107.22,51.55H1580.23l-68,74.23h-39.51a25,25,0,1,0,0,8.25h43.14l68-74.23h164.08l107.22-51.55h315v48.45H1865.48l-100.64,47.88H1621.46l-69,75.75H47.49V5063.69h76.26l53.35-53.35H283l36.17-36.17H456.24l61.58,61.58h131.6L711,4974.17h409.79l53.6,43.92h-378a25.28,25.28,0,1,0,0,8.25H962.57L898,5090.89H669.22a25.28,25.28,0,1,0,0,8.25H901.44l72.8-72.8h376.46l49.77,17a25.26,25.26,0,1,0,2.66-7.81l-51.06-17.44H1187.4l-53.6-43.92h595.08l-42.32,42.32a25.29,25.29,0,1,0,5.66,5.66l48-48h77.6l44.75,44.75H2170.2v43.3Zm0-51.55H1866l-36.5-36.5H2170.2v36.5Z" transform="translate(-1.09 -4927.78)" fill="#fff"/><path d="M405.43,4993a25.27,25.27,0,0,0-20.55,40l-11,11H178.42l-70.14,70.14a25.29,25.29,0,1,0,5.83,5.83l67.73-67.73H377.35l13.37-13.37A25.28,25.28,0,1,0,405.43,4993Z" transform="translate(-1.09 -4927.78)" fill="#fff"/><path d="M475.44,5498.23V5334.6H335.93v163.63H288.48v-369h47.45v162.51H475.44V5129.28h47.45v369H475.44Z" transform="translate(-1.09 -4927.78)" fill="#fff"/><path d="M751.71,5475.16l-31.42,16.66c-12.81,6.64-13.29,6.64-28,6.64H648.64c-20.4,0-35.12-2.37-51.72-16.13-19-15.66-23.73-32.27-23.73-56v-19.93c0-21.83,5.22-35.59,22.3-50.77,15.66-13.76,33.22-17.08,53.15-17.08h97.75v-10.44c0-34.17-7.59-39.86-40.34-39.86H618.74v-45.55h93.48c23.73,0,40.81,2.37,58.84,20.4,17.56,17.56,19.93,31.32,20.4,54.1l4.75,185.64h-44.5v-27.67Zm-102.6-91.06c-12.34,0-30.37,3.32-30.37,19.93v30.37c0,15.18,18.51,18.51,29.42,18.51h50.3l50.3-26.1v-10c0-25.15-7.12-32.74-32.27-32.74H649.11Z" transform="translate(-1.09 -4927.78)" fill="#fff"/><path d="M1057.2,5498.47h-83c-35.59,0-56-14.24-71.18-45.08l-43.66-88.26c-8.07-16.13-12.81-31.32-12.81-49.83,0-20.88,3.8-33.69,13.29-52.67l43.66-87.79c16.13-32.74,36.54-45.55,73.08-45.55h80.67v47.45H978c-20.4,0-23.73,1.9-32.74,19.93l-41.28,82.57c-6.17,12.81-10,21.35-10,36.06,0,13.29,4.27,21.35,10,32.74l40.34,82.09c9.49,19.46,14.24,20.88,35.59,20.88h77.35v47.45Z" transform="translate(-1.09 -4927.78)" fill="#fff"/><path d="M1312.47,5193.91c0-16.13-8-17.18-22.76-17.18h-100.6c-5.22,0-16.13-1.42-16.13,6.64,0,4.27,5.22,10,7.12,12.81l163.24,209.27c9.49,12.34,16.61,23.25,16.61,39.39,0,35.59-27,53.62-59.79,53.62h-104.4c-18,0-33.69-3.32-47.93-15.18-12.81-10.44-22.3-31.79-22.3-48.4H1173c0,14.24,7.59,16.13,20.88,16.13h103c3.8,0,15.66,1.42,15.66-5.69,0-3.8-6.64-10.91-8.54-13.76l-162.76-209.27c-10-12.81-15.66-22.3-15.66-38.91,0-19,9-35.12,25.15-45.55,13.29-8.54,24.2-8.54,39.39-8.54h100.6c18,0,33.22,3.8,47,15.66,12.34,10.91,22.3,32.36,22.3,49h-47.47Z" transform="translate(-1.09 -4927.78)" fill="#fff"/><path d="M12.53,5672.08v36.18H2.91V5631.9h9.62v32.19H46V5631.9h9.73v76.36H46v-36.18H12.53Z" transform="translate(-1.09 -4927.78)" fill="#fff"/><path d="M94.09,5688.73l-6,19.53H78.21l24.95-76.36h12.31l24.84,76.36H130l-5.93-19.53h-30Zm15-48.84-12.64,41h25.17Z" transform="translate(-1.09 -4927.78)" fill="#fff"/><path d="M207.1,5638l-5.26,6.21c-4.92-3.88-9.51-5.66-15.1-5.66-12.08,0-22,8.1-22,31.52,0,22.31,9.62,31.3,21.93,31.3,7.38,0,12.08-3.11,16.45-6.44l4.92,6.22c-4.25,4.33-11.52,8.44-21.7,8.44-18.46,0-31.89-13.87-31.89-39.51,0-26,14.32-39.51,31.77-39.51C195.69,5630.57,201.06,5633.23,207.1,5638Z" transform="translate(-1.09 -4927.78)" fill="#fff"/><path d="M231.94,5708.27V5631.9h9.62v76.36h-9.62Zm53.25,0h-12l-31.1-40.84,30-35.52h11.08l-29.87,35Z" transform="translate(-1.09 -4927.78)" fill="#fff"/><path d="M312,5688.73l-6,19.53h-9.85l24.95-76.36h12.31l24.84,76.36H348L342,5688.73H312Zm15-48.84-12.64,41h25.17Z" transform="translate(-1.09 -4927.78)" fill="#fff"/><path d="M397.08,5640.12v68.15h-9.62v-68.15H365.31v-8.21H419.8l-1.12,8.21H397.08Z" transform="translate(-1.09 -4927.78)" fill="#fff"/><path d="M452.13,5672.08v36.18h-9.62V5631.9h9.62v32.19h33.45V5631.9h9.73v76.36h-9.73v-36.18H452.13Z" transform="translate(-1.09 -4927.78)" fill="#fff"/><path d="M587.85,5670.2c0,25.2-13,39.4-32.22,39.4s-32.22-13.76-32.22-39.29c0-25.2,13.2-39.74,32.22-39.74S587.85,5644.45,587.85,5670.2Zm-54.15.11c0,22.2,9,31.3,21.93,31.3,13.43,0,21.93-9.1,21.93-31.41s-8.39-31.63-21.93-31.63C542.42,5638.56,533.7,5647.89,533.7,5670.31Z" transform="translate(-1.09 -4927.78)" fill="#fff"/><path d="M656.1,5708.27l-32.44-65.82a289.32,289.32,0,0,1,1.34,29v36.85h-9.06V5631.9h12.64l32.67,65.93c-0.22-2.11-1.23-13.76-1.23-23.2V5631.9h9.06v76.36h-13Z" transform="translate(-1.09 -4927.78)" fill="#fff"/><path d="M747.51,5688.73l-6,19.53h-9.85l24.95-76.36h12.31l24.84,76.36H783.43l-5.93-19.53h-30Zm15-48.84-12.64,41H775Z" transform="translate(-1.09 -4927.78)" fill="#fff"/><path d="M856.38,5708.27l-32.44-65.82a289.32,289.32,0,0,1,1.34,29v36.85h-9.06V5631.9h12.64l32.67,65.93c-0.22-2.11-1.23-13.76-1.23-23.2V5631.9h9.06v76.36h-13Z" transform="translate(-1.09 -4927.78)" fill="#fff"/><path d="M956.29,5669.64c0,31.3-19.47,38.63-35.91,38.63h-17.9V5631.9h15.89C937.61,5631.9,956.29,5638,956.29,5669.64Zm-44.19,31h9.06c12.31,0,24.73-5.33,24.73-31,0-26.31-13-30-25.51-30H912.1v60.94Z" transform="translate(-1.09 -4927.78)" fill="#fff"/><path d="M1072,5638l-5.26,6.21c-4.92-3.88-9.51-5.66-15.1-5.66-12.08,0-22,8.1-22,31.52,0,22.31,9.62,31.3,21.93,31.3,7.38,0,12.08-3.11,16.45-6.44l4.92,6.22c-4.25,4.33-11.52,8.44-21.7,8.44-18.46,0-31.89-13.87-31.89-39.51,0-26,14.32-39.51,31.77-39.51C1060.57,5630.57,1065.94,5633.23,1072,5638Z" transform="translate(-1.09 -4927.78)" fill="#fff"/><path d="M1154,5670.2c0,25.2-13,39.4-32.22,39.4s-32.22-13.76-32.22-39.29c0-25.2,13.2-39.74,32.22-39.74S1154,5644.45,1154,5670.2Zm-54.15.11c0,22.2,9,31.3,21.93,31.3,13.43,0,21.93-9.1,21.93-31.41s-8.39-31.63-21.93-31.63C1108.57,5638.56,1099.84,5647.89,1099.84,5670.31Z" transform="translate(-1.09 -4927.78)" fill="#fff"/><path d="M1239.81,5708.27l-2.91-35c-1.12-12.1-2-25.2-2.13-31.63l-17.34,57.83h-9.06l-18.12-57.94c-0.11,8.66-.78,21-1.79,32.3l-2.69,34.41h-9.17l6.49-76.36h13.2l16.89,56.5,16.11-56.5h13.2l6.71,76.36h-9.4Z" transform="translate(-1.09 -4927.78)" fill="#fff"/><path d="M1328.87,5655.32c0,17.43-12.64,24.53-29.54,24.53h-10.07v28.41h-9.62V5631.9h19.69C1317.68,5631.9,1328.87,5639.34,1328.87,5655.32Zm-10.29.11c0-11.77-7.5-16-19.36-16h-10v32.74H1299C1310.75,5672.19,1318.58,5668.64,1318.58,5655.43Z" transform="translate(-1.09 -4927.78)" fill="#fff"/><path d="M1379.67,5709.6c-17.45,0-26.4-10.66-26.4-25.64V5631.9h9.62v51.28c0,12,5.37,18.2,16.78,18.2s16.78-6.21,16.78-18.2V5631.9h9.85V5684C1406.3,5698.94,1396.9,5709.6,1379.67,5709.6Z" transform="translate(-1.09 -4927.78)" fill="#fff"/><path d="M1460.23,5640.12v68.15h-9.62v-68.15h-22.15v-8.21h54.48l-1.12,8.21h-21.59Z" transform="translate(-1.09 -4927.78)" fill="#fff"/><path d="M1505.65,5708.27V5631.9h9.73v76.36h-9.73Z" transform="translate(-1.09 -4927.78)" fill="#fff"/><path d="M1588.67,5708.27l-32.44-65.82a289.32,289.32,0,0,1,1.34,29v36.85h-9.06V5631.9h12.64l32.67,65.93c-0.22-2.11-1.23-13.76-1.23-23.2V5631.9h9.06v76.36h-13Z" transform="translate(-1.09 -4927.78)" fill="#fff"/><path d="M1685.45,5638.78l-5.71,5.88c-5.37-4.22-10.07-6.1-17-6.1-11.3,0-22.71,8.55-22.71,31.41,0,22.31,7.94,31.63,21.82,31.63a29.7,29.7,0,0,0,15-3.66v-23.86h-14l-1.12-7.88h24.73v36.74a47.66,47.66,0,0,1-25.29,6.66c-19,0-31.44-13.21-31.44-39.62,0-25.86,15.78-39.4,32.78-39.4C1672.7,5630.57,1679,5633.46,1685.45,5638.78Z" transform="translate(-1.09 -4927.78)" fill="#fff"/><path d="M1797.11,5639.34l-5.48,6.11c-5.59-4.88-11-6.88-17.45-6.88-8.17,0-14.32,3.88-14.32,11.32,0,6.77,3.24,10,17.12,14.21,12.64,3.77,22.6,8.66,22.6,23,0,13.32-10.07,22.53-27,22.53-11,0-19.47-3.66-25.84-9.77l5.71-6.22a27.58,27.58,0,0,0,20,8c9.4,0,17-4.77,17-14.21,0-7.88-3.8-11.32-17-15.32-15.1-4.55-22.6-10.21-22.6-21.87,0-11.43,9.85-19.65,23.83-19.65C1784.25,5630.57,1790.85,5633.68,1797.11,5639.34Z" transform="translate(-1.09 -4927.78)" fill="#fff"/><path d="M1885.5,5670.2c0,25.2-13,39.4-32.22,39.4s-32.22-13.76-32.22-39.29c0-25.2,13.2-39.74,32.22-39.74S1885.5,5644.45,1885.5,5670.2Zm-54.15.11c0,22.2,9,31.3,21.93,31.3,13.43,0,21.93-9.1,21.93-31.41s-8.39-31.63-21.93-31.63C1840.08,5638.56,1831.35,5647.89,1831.35,5670.31Z" transform="translate(-1.09 -4927.78)" fill="#fff"/><path d="M1961.25,5638l-5.26,6.21c-4.92-3.88-9.51-5.66-15.1-5.66-12.08,0-22,8.1-22,31.52,0,22.31,9.62,31.3,21.93,31.3,7.38,0,12.08-3.11,16.45-6.44l4.92,6.22c-4.25,4.33-11.52,8.44-21.7,8.44-18.46,0-31.89-13.87-31.89-39.51,0-26,14.32-39.51,31.77-39.51C1949.84,5630.57,1955.21,5633.23,1961.25,5638Z" transform="translate(-1.09 -4927.78)" fill="#fff"/><path d="M1986.09,5708.27V5631.9h9.73v76.36h-9.73Z" transform="translate(-1.09 -4927.78)" fill="#fff"/><path d="M2038.57,5639.67v25.75h26.29v7.77h-26.29v27.3h32.22v7.77h-41.84V5631.9H2070l-1.12,7.77h-30.32Z" transform="translate(-1.09 -4927.78)" fill="#fff"/><path d="M2120.24,5640.12v68.15h-9.62v-68.15h-22.15v-8.21H2143l-1.12,8.21h-21.59Z" transform="translate(-1.09 -4927.78)" fill="#fff"/><path d="M2189.5,5708.27h-9.84v-29.41l-24.73-46.95h10.74l19.24,38.51L2204,5631.9h10.18l-24.73,46.84v29.52Z" transform="translate(-1.09 -4927.78)" fill="#fff"/></svg>