<svg id="Layer_1" data-name="Layer 1" xmlns="http://www.w3.org/2000/svg" viewBox="0 0 100 100"><title>freshers</title><circle cx="50" cy="50" r="50" fill="#ed9723"/><circle cx="50" cy="50" r="43.33" fill="#f3a03c"/><path d="M47.47,25a0.82,0.82,0,0,0-.66.37l-2.37,3.55H36.38a0.82,0.82,0,0,0-.82.82V37.9a0.82,0.82,0,0,0,.82.82h8.16a0.82,0.82,0,0,0,.82-0.82V31.46l-1.63,2.45v3.18H37.2V30.55h6.15L41.05,34l-1-2a0.82,0.82,0,0,0-1.47.71v0L40.22,36a0.82,0.82,0,0,0,1.41.09l6.53-9.8A0.82,0.82,0,0,0,47.47,25h0Zm3.61,7.19a0.82,0.82,0,0,0-.82.82v1.63a0.82,0.82,0,0,0,.82.82H65.77a0.82,0.82,0,0,0,.82-0.82V33a0.82,0.82,0,0,0-.82-0.82H51.07ZM36.38,40.36a0.82,0.82,0,0,0-.82.82v8.16a0.82,0.82,0,0,0,.82.82h8.16a0.82,0.82,0,0,0,.82-0.82V41.17a0.82,0.82,0,0,0-.82-0.82H36.38ZM37.2,42h6.53v6.53H37.2V42Zm13.88,1.63a0.82,0.82,0,0,0-.82.82v1.63a0.82,0.82,0,0,0,.82.82H65.77a0.82,0.82,0,0,0,.82-0.82V44.43a0.82,0.82,0,0,0-.82-0.82H51.07ZM36.38,51.78a0.82,0.82,0,0,0-.82.82v8.16a0.82,0.82,0,0,0,.82.82h8.16a0.82,0.82,0,0,0,.82-0.82V52.59a0.82,0.82,0,0,0-.82-0.82H36.38Zm0.82,1.63h6.53v6.53H37.2V53.41ZM51.07,55a0.82,0.82,0,0,0-.82.82V57.5a0.82,0.82,0,0,0,.82.82H65.77a0.82,0.82,0,0,0,.82-0.82V55.86A0.82,0.82,0,0,0,65.77,55H51.07ZM36.38,63.2a0.82,0.82,0,0,0-.82.82v8.16a0.82,0.82,0,0,0,.82.82h8.16a0.82,0.82,0,0,0,.82-0.82V64a0.82,0.82,0,0,0-.82-0.82H36.38Zm0.82,1.63h6.53v6.53H37.2V64.84Zm13.88,1.63a0.82,0.82,0,0,0-.82.82v1.63a0.82,0.82,0,0,0,.82.82H65.77a0.82,0.82,0,0,0,.82-0.82V67.29a0.82,0.82,0,0,0-.82-0.82H51.07Z" fill="#fff"/></svg>