<svg id="Layer_1" data-name="Layer 1" xmlns="http://www.w3.org/2000/svg" viewBox="0 0 100.5 100.5"><title>freshers</title><circle cx="50" cy="50" r="50" fill="#ed9723"/><circle cx="50" cy="50" r="43.33" fill="#f3a03c"/><path d="M75,37.6a18.82,18.82,0,0,1-5.41,1.48,9.46,9.46,0,0,0,4.14-5.21,19,19,0,0,1-6,2.29,9.43,9.43,0,0,0-16.06,8.59,26.75,26.75,0,0,1-19.42-9.85,9.43,9.43,0,0,0,2.92,12.58,9.42,9.42,0,0,1-4.27-1.18v0.12a9.43,9.43,0,0,0,7.56,9.24A9.54,9.54,0,0,1,36,56a9,9,0,0,1-1.77-.18A9.43,9.43,0,0,0,43,62.36a18.91,18.91,0,0,1-11.7,4A20,20,0,0,1,29,66.26,26.64,26.64,0,0,0,43.48,70.5c17.33,0,26.81-14.36,26.81-26.81l0-1.22A18.82,18.82,0,0,0,75,37.6Z" fill="#fff"/></svg>